/* XPM */
static char *tile_0_81721830130[] = {
/* columns rows colors chars-per-pixel */
"32 32 172 2 ",
"   c None",
".  c #080A14",
"X  c #090A14",
"o  c #0E0C16",
"O  c #100D17",
"+  c #120E19",
"@  c #20141E",
"#  c #251622",
"$  c #241525",
"%  c #241527",
"&  c #251527",
"*  c #271627",
"=  c #271727",
"-  c #281722",
";  c #281723",
":  c #261821",
">  c #2C1827",
",  c #2D1927",
"<  c #2E1926",
"1  c #311B26",
"2  c #301A27",
"3  c #311B27",
"4  c #321B26",
"5  c #331B27",
"6  c #331C27",
"7  c #341C27",
"8  c #351C27",
"9  c #351D27",
"0  c #301A28",
"q  c #321C28",
"w  c #351D28",
"e  c #361D28",
"r  c #371E28",
"t  c #371F2A",
"y  c #381E29",
"u  c #391F29",
"i  c #3A202A",
"p  c #3B202A",
"a  c #3C212A",
"s  c #3D212B",
"d  c #3D222B",
"f  c #3E222B",
"g  c #3F222C",
"h  c #3F232C",
"j  c #40232C",
"k  c #41242D",
"l  c #42242D",
"z  c #43252D",
"x  c #40242E",
"c  c #43252E",
"v  c #44262E",
"b  c #48282F",
"n  c #472830",
"m  c #482830",
"M  c #492930",
"N  c #4A2930",
"B  c #4A2931",
"V  c #492A30",
"C  c #4B2A30",
"Z  c #4B2A31",
"A  c #4C2A31",
"S  c #4C2A32",
"D  c #4C2B32",
"F  c #4D2B32",
"G  c #4E2B32",
"H  c #4E2C32",
"J  c #4F2D32",
"K  c #4F2C33",
"L  c #4F2D33",
"P  c #502D33",
"I  c #512D33",
"U  c #522E34",
"Y  c #522F34",
"T  c #532F34",
"R  c #542F34",
"E  c #543034",
"W  c #553134",
"Q  c #553035",
"!  c #563135",
"~  c #573235",
"^  c #573236",
"/  c #583236",
"(  c #593236",
")  c #593336",
"_  c #593437",
"`  c #5A3436",
"'  c #5B3437",
"]  c #5C3537",
"[  c #5D3537",
"{  c #5E3638",
"}  c #5F3638",
"|  c #5F3738",
" . c #603738",
".. c #613839",
"X. c #623839",
"o. c #623939",
"O. c #633939",
"+. c #643A3A",
"@. c #653A3A",
"#. c #643B3A",
"$. c #663B3A",
"%. c #673C3B",
"&. c #643E3A",
"*. c #683C3B",
"=. c #693D3B",
"-. c #6A3D3C",
";. c #6A3E3C",
":. c #6B3E3C",
">. c #6B3F3C",
",. c #6C3F3C",
"<. c #6D403D",
"1. c #6E403D",
"2. c #6F413D",
"3. c #70413E",
"4. c #71423E",
"5. c #72433E",
"6. c #73433F",
"7. c #74443F",
"8. c #75453F",
"9. c #764540",
"0. c #764640",
"q. c #774640",
"w. c #784640",
"e. c #784740",
"r. c #794741",
"t. c #774841",
"y. c #784941",
"u. c #7A4841",
"i. c #7B4841",
"p. c #7B4941",
"a. c #784A41",
"s. c #7B4A42",
"d. c #7C4942",
"f. c #7C4A42",
"g. c #7D4B42",
"h. c #784D43",
"j. c #7F4C43",
"k. c #804D44",
"l. c #824F44",
"z. c #825145",
"x. c #855246",
"c. c #835546",
"v. c #8A5748",
"b. c #895948",
"n. c #8C5949",
"m. c #8E5A49",
"M. c #8F5B4A",
"N. c #8F5C4A",
"B. c #8E5F4B",
"V. c #915E4B",
"C. c #96624D",
"Z. c #97624D",
"A. c #97634E",
"S. c #95644E",
"D. c #96654E",
"F. c #9B674F",
"G. c #9C674F",
"H. c #9C6850",
"J. c #9E6950",
"K. c #9E6951",
"L. c #9F6A51",
"P. c #A26D52",
"I. c #A46E53",
"U. c #A57054",
"Y. c #A77154",
"T. c #A87255",
"R. c #A97355",
"E. c #AA7456",
"W. c #AC7657",
"Q. c #AD7757",
"!. c #AE7757",
"~. c #AE7857",
/* pixels */
"                                                                ",
"                                                                ",
"                                                                ",
"                                                                ",
"                                                                ",
"                                                                ",
"                                                                ",
"                                                                ",
"                                                                ",
"                                                                ",
"              F D F                                             ",
"          F F P U F H U D.                    R.R.P.            ",
"        F F U ' <.' F F h.D.L.Y.Y.W.      !.I.b.c.n.C.H.        ",
"      F F H { 5.<.5.-.' H ' t.n.C.Y.E.~.!.~.W.B.&.s.5.z.V.      ",
"    F F P ^ R 5.<.@.e. .P P ^ t.v.k.F.F.Y.I.F.L.s.5.' o.[ D :   ",
"    F F U ,.6.5.e.8.q.8.-.P @.5.e.j.x.N.J.j.v.C.s.s.5.' n 9 # ; ",
"  F F F ^ &.[ -.q.+.<.e.o.U -.s.s.e.e.l.n.e.j.k.i.e.<.' f 2 < 0 ",
"  D z F F P -.8.e.q.e.e.,.R o.q.e.s.e.j.j.i.e.e.,.@.F z r 2 <   ",
"y p v F F  .,.5.q.@.q.5.%.' [ 8.d.e.e.i.s.e.5.-.P f r   2 r     ",
"  r p j F F ^ s.9.,.e.q.o.H F -.e.i.i.e.e.5.@.F y               ",
"    9 f s U -.<.*.<.-.9.^ j ' o.,.r.e.5.@.@.^ F                 ",
"      7 j ^ o.U U *.U R r 6 f H -.X.6.@.{ R                     ",
"      2 f b v D b D s p 9     j D U { ' U                       ",
"      O ; p z y 2   0           @ 2 v F F                       ",
"    X X + < 9 &                 X o ; y z z                     ",
"    X X   & <                   X X     > 0 &                   ",
"  X X       & &                 X X       % % %                 ",
"            % &                 X           & &                 ",
"                                                                ",
"                                                                ",
"                                                                ",
"                                                                "
};
