/* XPM */
static char *Boar_1_1724938361[] = {
/* columns rows colors chars-per-pixel */
"32 32 186 2 ",
"   c None",
".  c #0C0223",
"X  c #130525",
"o  c #170C2C",
"O  c #260420",
"+  c #2C0A26",
"@  c #210B29",
"#  c #2C0B28",
"$  c #230A27",
"%  c #370721",
"&  c #320B27",
"*  c #350E29",
"=  c #3E0F29",
"-  c #371129",
";  c #3C122A",
":  c #4F0009",
">  c #500009",
",  c #530719",
"<  c #5C0B1B",
"1  c #6F000E",
"2  c #6D0918",
"3  c #730212",
"4  c #7B0D18",
"5  c #7B0011",
"6  c #410F29",
"7  c #480F28",
"8  c #42142B",
"9  c #4D122B",
"0  c #43182E",
"q  c #4B1B2F",
"w  c #52162B",
"e  c #5E142B",
"r  c #561B2E",
"t  c #5C1C2E",
"y  c #451E33",
"u  c #4A1F32",
"i  c #551F31",
"p  c #681327",
"a  c #66172D",
"s  c #6B172B",
"d  c #6C192E",
"f  c #701427",
"g  c #71162A",
"h  c #7B1728",
"j  c #721A2D",
"k  c #7C1D2E",
"l  c #6F1E30",
"z  c #711E32",
"x  c #7F1E30",
"c  c #472539",
"v  c #492639",
"b  c #57273A",
"n  c #60202F",
"m  c #75252B",
"M  c #742233",
"N  c #7C2933",
"B  c #762E39",
"V  c #782835",
"C  c #67333A",
"Z  c #76323B",
"A  c #713743",
"S  c #810414",
"D  c #930315",
"F  c #9C0518",
"G  c #93121E",
"H  c #AC0719",
"J  c #A50E1D",
"K  c #AB0718",
"L  c #B80A1D",
"P  c #A4101E",
"I  c #801221",
"U  c #841D26",
"Y  c #8D1E2D",
"T  c #811C2E",
"R  c #861E30",
"E  c #8A1F30",
"W  c #901F30",
"Q  c #B80F21",
"!  c #B61424",
"~  c #A91421",
"^  c #852A2E",
"/  c #90212F",
"(  c #852332",
")  c #8B2332",
"_  c #872B36",
"`  c #8B2B34",
"'  c #942432",
"]  c #9B2532",
"[  c #942C35",
"{  c #9D2A34",
"}  c #902D38",
"|  c #8B3036",
" . c #9C343B",
".. c #9C3338",
"X. c #A9222D",
"o. c #A7262E",
"O. c #B0232F",
"+. c #A32B35",
"@. c #AA2E37",
"#. c #A62F38",
"$. c #B32C31",
"%. c #AB3336",
"&. c #AF3438",
"*. c #A53B3D",
"=. c #AA393B",
"-. c #A63637",
";. c #B23436",
":. c #B23539",
">. c #B5393B",
",. c #BB3B3C",
"<. c #C20B1D",
"1. c #CB0D21",
"2. c #D90F23",
"3. c #C9192A",
"4. c #C01627",
"5. c #D91427",
"6. c #C03D3D",
"7. c #E22033",
"8. c #EE2235",
"9. c #B7403F",
"0. c #C3423E",
"q. c #C9433F",
"w. c #9E3C42",
"e. c #A33C43",
"r. c #B33C42",
"t. c #DE3845",
"y. c #EE3B4A",
"u. c #FA3F4E",
"i. c #9C4749",
"p. c #9D5657",
"a. c #9C5758",
"s. c #A74745",
"d. c #B44444",
"f. c #BC4945",
"g. c #B24848",
"h. c #A95B4F",
"j. c #B2554B",
"k. c #BA5C4E",
"l. c #BB594B",
"z. c #A55F5D",
"x. c #B15654",
"c. c #BB5552",
"v. c #AE6956",
"b. c #B9645A",
"n. c #BB735A",
"m. c #A46261",
"M. c #A5726E",
"N. c #B67067",
"B. c #C54642",
"V. c #C44A45",
"C. c #CC4B43",
"Z. c #CC4B46",
"A. c #D14D44",
"S. c #CC574B",
"D. c #C85449",
"F. c #D35146",
"G. c #D45B4C",
"H. c #DA5D4D",
"J. c #D2564A",
"K. c #C05751",
"L. c #E65449",
"P. c #CE614F",
"I. c #DA614F",
"U. c #C26352",
"Y. c #DD6351",
"T. c #D26A54",
"R. c #DC6C54",
"E. c #C8755C",
"W. c #D67459",
"Q. c #E46053",
"!. c #E36C55",
"~. c #E3755B",
"^. c #E2795D",
"/. c #C36560",
"(. c #DB6860",
"). c #D38363",
"_. c #D78E69",
"`. c #D8936C",
"'. c #D79F74",
"]. c #E58663",
"[. c #E7966D",
"{. c #E5A575",
"}. c #EAB47F",
"|. c #ECB884",
" X c #F0B880",
".X c #F6CA8E",
/* pixels */
"X X X X X X             X X X X X X X X             X X X X X X ",
"X $ ; 8 8 *             = - ; 8 0 0 8 ;             * 8 0 ; + X ",
"X 8 ` =.[ l * .     . * l ` [ ..9.=...N - .     X * l [ =.` ; X ",
"X q f.L.6.) r ;     + w [ ,.B.A.I.Y.F.=.n -     - i ) 6.L.f.q X ",
"X v c.Q.:.' [ N - + e T %.q.A.Y.W.^.Y.C.=.V - - N [ W r.Q.K.v X ",
"X c i.c.g.r.,.[ w 7 x +.:.q.A.H.^.^.H.A.q.{ w 9 [ ,.r.g.c.i.y X ",
"    y A /.(.r.' k k { @.&.>.q.C.I.I.Z.q.,.+.x h W r.(./.A y     ",
"    . c m.c. .Y W ] +.+.@.:.>.6.Z.A.B.:.%.{ ] ' Y w.k.z.c .     ",
"        v b z Y { +.) ' +.&.;.,.q.6.,.@.' ) +.{ R z b v         ",
"        . + d [ { ' l l ) +.%.:.,.,.#.) d l ' { ' s # .         ",
"        . - _ %.' l = = a ) ;.6.,.;.' d = = l ' %._ * .         ",
"        + w -.,. .z = ; B 9.l.P.T.U.s.A ; = z  .,.-.t &         ",
"    X & e ( :.q.V.e.z B v.)._.{. X|.'.v.B l e.V.0.=.[ l = X     ",
"    X & g +.,.r.V.r.e.s.W.[.{.}..X.X X`.h.s.d.B.0.9.t.} - X     ",
"    X & s ] @.$.#.e.l.T.W.].].[.[.[.[.[.`.n.9.@.,.V.Z.w.0 X     ",
"    X & j +.+.+.+.r.T.W.b.k.W.^.W.T.b.n.`._.h.*.:.9.Z.e.y .     ",
"    X * ( o.] +.,.J.!.k.C C k.~.^.k.C C b.].).b.=.%.9. .0 .     ",
"    # 9 ' @.W { 0.H.!.j.r r j.!.~.l.b i j.^.].W.-./ ;.{ w &     ",
"X & a R +.#.] { 9.F.!.K.^ ^ f.R.~.U._ ^ D.!.!.S.-./ @.@.T e & X ",
"X & j ' { ] W ] >.0.G.S.=.>.q.I.R.T.d.9.P.Y.H.0.{ / { +.+.N - X ",
"X * g W E R Y ] %.,.0.D.S.S.q.F.H.Y.T.T.I.G.A.,.+.E ( ' ;.` ; X ",
"X * j W ) k j x / %.:.0.P.I.q.q.V.G.R.R.H.q.,.{ k j x ' %.[ = X ",
"X & g ' +.( 9 8 d ' @.,.0.q.0.0.,.9.C.F.q.9.+.m 7 9 ( +.+.k * X ",
"X & s ] +.( 9 & w M e.d.%.%.;.$.$.X.o.=.V.s.N 9 & 8 ) +.' s & X ",
"X & a E W E d 9 & b v.z.( 4 G ~ ! J 4 ^ b.m.b & w s R W E a & X ",
"X # 9 l R E R s % c a.x.U 5 F ! 3.! S U x.a.q % s E R R g w # X ",
"  @ # = d R E h , < Y X.P H 1.7.y.y.! J X.Y < , h E R s = # @   ",
"    X # 9 s g f 2 3 S D K <.2.8.u.y.3.K D 5 2 2 s g s w # X     ",
"      @ # # & 7 f I 3 3 D K <.5.8.7.Q D 1 3 h f 9 & # & o       ",
"        X X X & e p , < / X.P K L ! O.Y < , p a # X X X         ",
"            o @ + & O c p.j.U 1 3 Y c.a.c O # * @ o             ",
"              o X X X c M.N.m > > m N.M.c X X X o               "
};
