/* XPM */
static char *Jam_1__1_1724421528[] = {
/* columns rows colors chars-per-pixel */
"32 32 196 2 ",
"   c None",
".  c #3C051F",
"X  c #150625",
"o  c #160B2B",
"O  c #180A29",
"+  c #240A28",
"@  c #330621",
"#  c #3F0E29",
"$  c #3D1024",
"%  c #41061F",
"&  c #640418",
"*  c #440A24",
"=  c #430822",
"-  c #46132D",
";  c #4C152E",
":  c #4E1930",
">  c #56152A",
",  c #6F1428",
"<  c #4C2332",
"1  c #522334",
"2  c #522935",
"3  c #4C3035",
"4  c #513336",
"5  c #51393B",
"6  c #7A2738",
"7  c #623150",
"8  c #664457",
"9  c #810414",
"0  c #8D0716",
"q  c #910917",
"w  c #960E1D",
"e  c #950B19",
"r  c #AD0512",
"t  c #B80B15",
"y  c #BB171E",
"u  c #B0050F",
"i  c #9C1626",
"p  c #9F1825",
"a  c #AA1824",
"s  c #8F293A",
"d  c #912A3A",
"f  c #952327",
"g  c #B52F3C",
"h  c #BB202F",
"j  c #C00C15",
"k  c #CB131C",
"l  c #C6111A",
"z  c #D0181F",
"x  c #C71823",
"c  c #D31D25",
"v  c #D31E29",
"b  c #C3242B",
"n  c #CB272C",
"m  c #D5212B",
"M  c #DA252E",
"N  c #D62A2C",
"B  c #C53229",
"V  c #CE2A34",
"C  c #DE2A34",
"Z  c #D52D33",
"A  c #CD3833",
"S  c #DA3B3E",
"D  c #E4333B",
"F  c #EA363D",
"G  c #E83B3F",
"H  c #CC4D38",
"J  c #DC443C",
"K  c #B83846",
"L  c #BC3F5A",
"P  c #C4374A",
"I  c #E93D42",
"U  c #8B5246",
"Y  c #BF534D",
"T  c #BD4556",
"R  c #B84045",
"E  c #9B6F4D",
"W  c #9E704E",
"Q  c #AE6746",
"!  c #C54347",
"~  c #C34659",
"^  c #CC4D5F",
"/  c #D24859",
"(  c #C15D52",
")  c #D94C4F",
"_  c #E44845",
"`  c #F14A4C",
"'  c #E9564B",
"]  c #F2534E",
"[  c #EC5A59",
"{  c #F55551",
"}  c #F65C54",
"|  c #C16953",
" . c #C27E59",
".. c #E9744C",
"X. c #EC6153",
"o. c #F56454",
"O. c #FB6A5A",
"+. c #F76956",
"@. c #ED7655",
"#. c #FC745C",
"$. c #FC7D5D",
"%. c #F67659",
"&. c #C64A63",
"*. c #C94C62",
"=. c #CD5162",
"-. c #DC5F6F",
";. c #D55871",
":. c #DC606F",
">. c #D96873",
",. c #D47276",
"<. c #DA7779",
"1. c #C96B65",
"2. c #F96E68",
"3. c #F96C67",
"4. c #E07F7C",
"5. c #F37771",
"6. c #C18C58",
"7. c #D48D5C",
"8. c #C1925D",
"9. c #FA845D",
"0. c #ED995B",
"q. c #F38959",
"w. c #C19D65",
"e. c #D79C7A",
"r. c #FC8561",
"t. c #FD8B63",
"y. c #FE9463",
"u. c #FC9A63",
"i. c #FF9969",
"p. c #F99366",
"a. c #E1817D",
"s. c #FCA465",
"d. c #FEA569",
"f. c #FDAC69",
"g. c #FEB86E",
"h. c #FDBA72",
"j. c #FEC677",
"k. c #875E8C",
"l. c #A65B87",
"z. c #8B6E92",
"x. c #BD768C",
"c. c #AB608C",
"v. c #9671A9",
"b. c #9B75AB",
"n. c #A17BB2",
"m. c #A077B0",
"M. c #9E81B2",
"N. c #AC8BA7",
"B. c #AD8CA9",
"V. c #A784A7",
"C. c #B08FAA",
"Z. c #B495AF",
"A. c #B39AAF",
"S. c #A485B2",
"D. c #A897B5",
"F. c #B59EB2",
"G. c #B091B3",
"H. c #B4A4B6",
"J. c #B7AAB8",
"K. c #B8B4BA",
"L. c #DB9D82",
"P. c #E38783",
"I. c #E49989",
"U. c #F6948A",
"Y. c #E78D93",
"T. c #DFA484",
"R. c #EBA48D",
"E. c #E3A784",
"W. c #E5B288",
"Q. c #C390A3",
"!. c #C79DA7",
"~. c #CEB5AD",
"^. c #F2B8A0",
"/. c #D0C2B2",
"(. c #D7CCBD",
"). c #FECDB9",
"_. c #928EC9",
"`. c #998DC2",
"'. c #878CD0",
"]. c #9F98C3",
"[. c #A098C3",
"{. c #AAADC5",
"}. c #BAADC1",
"|. c #B0B8C7",
" X c #BBB7C4",
".X c #A9BBD2",
"XX c #B4C1CF",
"oX c #B8C3D4",
"OX c #BBCCDB",
"+X c #B1C2D7",
"@X c #B4CFE2",
"#X c #D3DCDC",
"$X c #FBDBC2",
"%X c #E1DDD1",
"&X c #E7C8C3",
"*X c #E6E1D7",
/* pixels */
"        X X X X X X X X X X X X X X X X X X X X X X X X         ",
"        ; : 1 < 1 1 1 2 4 5 5 5 5 5 4 3 2 2 1 1 2 : : -         ",
"    X ; d K Y ( ( ( ( Q  .8.w.w.8.6.6.6.| ( ( ( ( ( K s - X     ",
"    X ; g { o.#.r.t.#.9.u.g.j.j.f.u.s.u.#.#.#.r.t.9.o.K : X     ",
"    X : K ] { +.p.p.+.o.9.s.j.f.9.%.9.9.o.} #.t.d.d.r.! 1 X     ",
"    X ; s K &.,.L.L.<.>.a.R.e.e.<.>.P.P.<.<.4.I.E.e.1.U : X     ",
"        - 7 k.M.D.D.Z.A.F.J.K.H.A.A.J. X}.J.J.H.D.V.8 <         ",
"        - 7 z.M.M.V.H.J.A.Z.F.J.K.K.J.}. X X}.H.M.k.8 3         ",
"    X - d Y >.<.>.,.T.T.<.>.a.I.W.T.<.,.P.R.W.L.,.1.Q W 5 o     ",
"    ; 6 ! o.O.+.X.%.u.p.[ ] +.y.g.f.%.} o.r.u.u.@.@.u.7.U 5     ",
"X - s ! X.O.} o.q.u.y.#.] ] O.i.h.h.r.o.{ o.9.y.s.u.y.p.7.E 3 X ",
"X - d ! ) ' ' %.s.f.@._ S _ +.i.j.h.q._ I _ _ @.u.d.u.p.7.W 3 X ",
"    ; , f A ' t.f.0.H y y b X.y.g.0.H h m n h A ..p.f.7.U 3     ",
"    X % 9 y J +.y...B r r h ] $.9...A b ) ) b n _ ..q.Q 3 X     ",
"    X @ 0 t y A ' ] Z x x Z ` { _ J G [ R.Y.[ C m n B f $ X     ",
"    X * p x y h / -.&.T T =.:.-.=.^ :.Y.&X&XY.[ V t u 9 . X     ",
"    X ; K D m K c.m.b.m.V.C.Z.Z.B.B.Z.J.OXOXJ.x.P x j 0 = X     ",
"    X > h I C L v.'._.[.{.|.|.|.|.|.|.XX@XOX.XB.~ v k w = X     ",
"    X * i v M L b._.G.!.~././././.~./.(.%X#X+XN.~ m v i * X     ",
"    X = q k v &.b.`.Q.I.I.R.R.R.R.R.R.^.$X*XoXB.=.C v p * X     ",
"    O = q c D ;.m.`.Q.P.5.2.2.2.2.2.2.U.).*XoXZ.:.F v w * X     ",
"    X = w v F ;.m.`.Q.P.5.2.2.2.2.2.2.U.).*XoXA.:.F c w * X     ",
"    X * i m C &.b.`.Q.I.R.R.R.R.R.R.R.^.).*XoXC.=.C m i * X     ",
"    O * i v m L v._.G.!.~././././././.(.*X#X+XB.~ m v p * X     ",
"    X * w k c P v.'._.[.{.|.|.|.|.|. X.XOX@X.XN.~ v x w = X     ",
"    X = q j c K l.v.m.n.B.C.Z.Z.C.N.B.G.J.}.Z.x./ M l q = X     ",
"    X @ 9 r j b P &.;.;.*.=.-.-.=.~ P ;.>.>.=./ _ I y 9 . X     ",
"    O @ & 0 t k c M F F C C F F M m M F I I M m D V w & @ O     ",
"      + @ & p v k k z c m v c z k c F F M z l l y i & @ +       ",
"      o O - , i w q q w p p w q q p g g p q q q 9 & @ o O       ",
"        o + - * = = = = * * * % % * ; ; * = % = @ @ + o         ",
"          O O O X X X O X X X X X X X X X X X X X O O           "
};
