/* XPM */
static char *tile_18_171723028677[] = {
/* columns rows colors chars-per-pixel */
"32 32 125 2 ",
"   c None",
".  c #487140",
"X  c #497241",
"o  c #4A7340",
"O  c #4A7341",
"+  c #4A7441",
"@  c #4B7441",
"#  c #4C7541",
"$  c #4C7542",
"%  c #4D7542",
"&  c #4D7642",
"*  c #4E7642",
"=  c #4E7742",
"-  c #4F7742",
";  c #4E7743",
":  c #4F7842",
">  c #4F7843",
",  c #507843",
"<  c #507943",
"1  c #517943",
"2  c #517A43",
"3  c #517944",
"4  c #517A44",
"5  c #527A44",
"6  c #527B44",
"7  c #537B44",
"8  c #537C44",
"9  c #537C45",
"0  c #547C44",
"q  c #557D44",
"w  c #547C45",
"e  c #547D45",
"r  c #557D45",
"t  c #557E45",
"y  c #567E45",
"u  c #577F46",
"i  c #587F44",
"p  c #587F45",
"a  c #5A8145",
"s  c #5B8145",
"d  c #5B8245",
"f  c #588046",
"g  c #598146",
"h  c #588047",
"j  c #598147",
"k  c #5A8146",
"l  c #598247",
"z  c #5B8246",
"x  c #5A8247",
"c  c #5B8247",
"v  c #5A8347",
"b  c #5B8347",
"n  c #5C8246",
"m  c #5C8347",
"M  c #5D8446",
"N  c #5C8447",
"B  c #5D8447",
"V  c #5E8547",
"C  c #5B8348",
"Z  c #5B8448",
"A  c #5C8448",
"S  c #5C8548",
"D  c #5D8549",
"F  c #5E8548",
"G  c #5F8548",
"H  c #5F8648",
"J  c #5E8649",
"K  c #5F8749",
"L  c #5F874A",
"P  c #5F884A",
"I  c #608647",
"U  c #618747",
"Y  c #618849",
"T  c #638949",
"R  c #638A49",
"E  c #60884A",
"W  c #61894A",
"Q  c #61894B",
"!  c #618A4B",
"~  c #638A4A",
"^  c #638B4A",
"/  c #628A4B",
"(  c #638B4B",
")  c #678D49",
"_  c #658C4B",
"`  c #658D4B",
"'  c #668D4A",
"]  c #668D4B",
"[  c #678E4B",
"{  c #658D4C",
"}  c #688D48",
"|  c #698D48",
" . c #698D49",
".. c #698E49",
"X. c #688E4A",
"o. c #698E4A",
"O. c #698F4A",
"+. c #688F4B",
"@. c #688F4C",
"#. c #6A904B",
"$. c #6B914B",
"%. c #6B914C",
"&. c #6C924C",
"*. c #6D924C",
"=. c #6D934C",
"-. c #6E934C",
";. c #71964D",
":. c #72974D",
">. c #74984D",
",. c #779A4D",
"<. c #74994E",
"1. c #779B4E",
"2. c #789B4D",
"3. c #7B9D4D",
"4. c #7B9D4E",
"5. c #7C9E4E",
"6. c #7D9F4E",
"7. c #7FA04E",
"8. c #80A24F",
"9. c #81A24F",
"0. c #83A44F",
"q. c #84A44F",
"w. c #84A550",
"e. c #8BAA51",
"r. c #8BAB51",
/* pixels */
"            O O @ O @ @             @ @ O O O O                 ",
"            5 5 6 ; & O             O & 5 5 5 5                 ",
"        @ , C P E C ; O @ @     @ @ O & x J J C , @             ",
"        @ , x E P S e * & &     : @ 5 e J E P C , @             ",
"    @ @ @ @ 5 5 6 e S C & f 3.3.e , x S 6 5 5 5 & @ @ @         ",
"    @ @ & & & @ @ 5 S S q U 9.0.U e S C 6 @ & & & & @ O         ",
"& O O & , e 6 5 5 5 6 6 v &.q.q.=.x 6 5 5 5 5 6 5 , & & @ @     ",
"& O & , 0 e e e e 5 : : x &.q.0.&.x 5 : 6 e e e e e & & @ @     ",
"O & , 0 0 e e 0 0 0 5 , , I 9.9.E * , 5 0 0 e e e e 0 , & @     ",
"& & 0 e p C C C m J E m s | q.0. .p C m m I E m p e 0 0 & @     ",
"0 0 e p E Q Q { *.;.;.>.3.9.e.e.9.2.O.O.*.>.;.O.B 0 0 0 & O     ",
"0 e x m E Q E { *.;.;.>.9.9.e.e.9.2./ / *.;.>.O.E p e 0 & &     ",
"0 p J E m C u m B J J m B  .9.9...i 0 0 C m m E E E x , & O     ",
"C m E E u 5 p e 0 0 5 * O p 9.8.B . O & 5 0 0 u J E v e & &     ",
"Q E C u e e p e 0 5 & O . x 8.8.x O & 0 0 0 0 e x x P J , O     ",
"Q J u e e e 5 e m C 0 0 p  .9.9.| p x x B J V B e x J v , O     ",
"B p e e 0 0 # 0 &.-.E ] 2.q.r.r.9.2. .] *.:.:.O.m r 5 , & @     ",
"0 e e 0 0 0 q B &.-.]  .2.q.r.r.9.3. .] *.:.:.*./ u , O O @     ",
"e e q 0 & q ] =.U V x x a | q.q. .x x C m m I / *.O.0 O O O     ",
"0 0 0 , # 0  .=.V , q , o x 3.9.p O 5 e r 0 0 m *.O.e O O &     ",
"& & & @ O , x V f e e , & B 3.9.B o 5 e e 0 r u B x , @ @ @     ",
"@ @ @ @ & , , e e e p x , E 7.3.I , 0 e p e r 0 , , & @ @ @     ",
"    @ & , 0 e e e p J E J { 2.2. .J e e 0 0 e 0 , & @ @         ",
"    @ & 5 0 0 e e J E E Q #.>.>.{ E J e p 0 0 , & @ @ @         ",
"        & & & 5 J P v x x E ;.;.E x E J x 5 & & @ @             ",
"        & O O 5 x J e 5 , B =.=.B e J V e 5 & @ @ @             ",
"            O @ , , : & e x ] ( e & , , & & @ @                 ",
"            @ @ O O O & , x E E , O O O O & @ @                 ",
"                        @ q J E , O                             ",
"                        O e E E e @                             ",
"                            ( (                                 ",
"                            { {                                 "
};
