/* XPM */
static char *tile_1_41721830130[] = {
/* columns rows colors chars-per-pixel */
"32 32 171 2 ",
"   c None",
".  c #1B0E1E",
"X  c #1D131C",
"o  c #380D1E",
"O  c #251B16",
"+  c #22161D",
"@  c #24191C",
"#  c #291D1D",
"$  c #2B131C",
"%  c #272408",
"&  c #28220D",
"*  c #342F0B",
"=  c #37240E",
"-  c #343206",
";  c #3E3F01",
":  c #3A360F",
">  c #3D3B0A",
",  c #2C2413",
"<  c #3C2010",
"1  c #332C14",
"2  c #302918",
"3  c #393410",
"4  c #3A341C",
"5  c #0E0425",
"6  c #0F0827",
"7  c #130525",
"8  c #160827",
"9  c #160C2B",
"0  c #1D0929",
"q  c #250626",
"w  c #2B0426",
"e  c #200929",
"r  c #2A0E2D",
"t  c #320525",
"y  c #3C0526",
"u  c #3B0928",
"i  c #291C21",
"p  c #2C102E",
"a  c #351822",
"s  c #3E1733",
"d  c #392121",
"f  c #342A26",
"g  c #3D352C",
"h  c #4D161D",
"j  c #4C1B14",
"k  c #6C0B1F",
"l  c #70101F",
"z  c #403E07",
"x  c #4C3E0A",
"c  c #44350E",
"v  c #5A2E10",
"b  c #552417",
"n  c #463818",
"m  c #440627",
"M  c #460829",
"N  c #490829",
"B  c #480326",
"V  c #5B0426",
"C  c #5E0B20",
"Z  c #540527",
"A  c #5B1728",
"S  c #571B37",
"D  c #581B37",
"F  c #630426",
"G  c #680528",
"H  c #6D0227",
"J  c #710225",
"K  c #7F0125",
"L  c #730E2E",
"P  c #7F062B",
"I  c #62102F",
"U  c #661734",
"Y  c #7C1030",
"T  c #791A38",
"R  c #50223D",
"E  c #5D253F",
"W  c #61233E",
"Q  c #3E4002",
"!  c #424304",
"~  c #4D4F07",
"^  c #4A4B0A",
"/  c #594F0B",
"(  c #4E520B",
")  c #525702",
"_  c #52530F",
"`  c #565909",
"'  c #484616",
"]  c #575910",
"[  c #5C5D14",
"{  c #505215",
"}  c #5D6305",
"|  c #626618",
" . c #656914",
".. c #6C7311",
"X. c #474324",
"o. c #797E25",
"O. c #762540",
"+. c #860327",
"@. c #840528",
"#. c #8C0529",
"$. c #87092B",
"%. c #8A062A",
"&. c #9D0225",
"*. c #950529",
"=. c #9A0529",
"-. c #94092F",
";. c #881232",
":. c #A70229",
">. c #AA062B",
",. c #AA092F",
"<. c #B00026",
"1. c #B4052B",
"2. c #BB042B",
"3. c #BC092F",
"4. c #AC0D31",
"5. c #B50D32",
"6. c #B9193B",
"7. c #C3042A",
"8. c #C4092F",
"9. c #DD082F",
"0. c #C30C31",
"q. c #C80D32",
"w. c #D50E33",
"e. c #DB0C32",
"r. c #C61137",
"t. c #CD1238",
"y. c #C41A3D",
"u. c #DB183F",
"i. c #E1092F",
"p. c #E40D34",
"a. c #EB0E35",
"s. c #EE1137",
"d. c #E6133A",
"f. c #F11037",
"g. c #F1153B",
"h. c #D71B41",
"j. c #DE1A41",
"k. c #E31A41",
"l. c #EC1D44",
"z. c #F41C43",
"x. c #F91C43",
"c. c #C72748",
"v. c #DF2345",
"b. c #E52346",
"n. c #ED2248",
"m. c #EC2247",
"M. c #F52347",
"N. c #F92047",
"B. c #F52549",
"V. c #FA234A",
"C. c #F32A4D",
"Z. c #EA3E5C",
"A. c #F53353",
"S. c #EA415F",
"D. c #FA415F",
"F. c #D84C65",
"G. c #E54D67",
"H. c #FA4461",
"J. c #EC526B",
"K. c #F5536B",
"L. c #FA566F",
"P. c #FA5770",
"I. c #FB6177",
"U. c #7C8323",
"Y. c #868F2E",
"T. c #818739",
"R. c #929D36",
"E. c #99A72E",
"W. c #F9A7A7",
"Q. c #FAA7A8",
"!. c #F9A8A8",
/* pixels */
"                                                                ",
"                                                                ",
"                            8 7 7 0                             ",
"                            + + + .                             ",
"                        8 + : z * & . 7     7 7 7 7             ",
"                        7 i : ! ; * O .     i # # @             ",
"                            + , z ! - & . i ' _ ^ 3 + 7         ",
"                            7 X > z - & O 2 ] } ~ 3 + 0         ",
"                7 7 7 6 7 5 7 X * - @ @ 3 ! ) ( 1 $             ",
"                t y m m N M y o < = O 2 ^ ) ^ * 0 7             ",
"            5 t F +.=.>.5.4.#.J C j c ^ .. .4 0 . 7             ",
"            t Z *.8.e.p.a.p.q.,.%.J v / ..| n f f g             ",
"        7 t F *.8.d.z.l.9.e.k.k.8.=.l b ! _ | o.R.T.g 7         ",
"        5 y +.8.d.x.V.C.v.b.M.M.b.y.-.k j c [ U.E.Y.n @         ",
"        6 y *.e.z.V.g.C.K.J.B.C.K.G.y.&.k h d 4 { [ ] ' i 7     ",
"        y G 1.p.N.V.V.A.L.I.K.K.I.K.b.3.#.V w 8 % ! } _ i 7     ",
"    7 m @.2.e.s.g.B.D.H.A.K.W.W.K.M.V.u.,.J t . % ; ) ^ @ 7     ",
"    6 m >.p.s.g.g.C.D.H.A.K.W.W.K.C.n.u.3.#.B $ * ; > 3 + 7     ",
"    7 m 5.f.g.g.V.V.M.A.L.P.K.K.I.J.c.2.7.:.H j x ! 2 $         ",
"    7 N 5.g.g.z.V.V.M.A.P.P.A.A.J.F.6.<.2.>.P A c 3 + 7         ",
"    7 m >.p.N.V.g.B.D.H.A.A.H.S.c.6.8.7.<.=.Y A a +             ",
"    7 m :.p.g.M.N.B.D.D.M.M.H.S.y.3.7.2.:.$.T E r 7             ",
"    6 N 5.s.p.d.N.C.B.B.V.V.V.C.n.u.3.&.K L T E r 7             ",
"    7 N 5.a.i.p.l.M.g.z.m.m.g.g.M.h.4.$.L U E R r 7             ",
"    7 M ,.i.s.p.p.d.M.m.r.r.n.m.r.4.;.T O.E M r                 ",
"    7 y @.1.w.p.9.e.l.j.0.3.u.u.,.@.I S E R p 7                 ",
"        y C *.8.p.p.0.0.w.e.r.,.@.V u p p p                     ",
"        6 t F #.,.4.%.%.4.4.#.J V m e 7 7 9                     ",
"          e t u M M u u M M y t w q 0 9                         ",
"            8 7 7 7 7 8 7 7 8 8 8 8                             ",
"                    9 9 9 9                                     ",
"                                                                "
};
